<svg width="80" height="52" viewBox="0 0 80 52" fill="none" xmlns="http://www.w3.org/2000/svg">
<path fill-rule="evenodd" clip-rule="evenodd" d="M72.6018 26H62.7521C61.8028 26 60.9266 26.5019 60.4573 27.3146L46.9603 50.6854C46.4909 51.4981 45.6147 52 44.6654 52H35.6407C34.1827 52 33.0007 50.8359 33.0007 49.4L33.0006 30.0125L33.0007 29.9975C33.0007 28.2026 31.5232 26.7475 29.7006 26.7475C28.523 26.7475 27.4894 27.3549 26.9054 28.269L13.9596 50.6854C13.4903 51.4981 12.614 52 11.6647 52H-6.32219e-07V45.825L25.642 1.31696C26.111 0.502973 26.9879 0 27.9382 0H36.961C38.4191 0 39.6011 1.16406 39.6011 2.6V26H43.007C43.9608 26 44.8404 25.4934 45.308 24.6747L58.6444 1.32532C59.112 0.506639 59.9917 0 60.9455 0H69.9617C71.4198 0 72.6018 1.16406 72.6018 2.6V26ZM72.6018 26L76.7269 34.7344L79.7537 41.1433C80.1187 41.916 80.0759 42.8159 79.6393 43.5517L75.3901 50.7119C74.9167 51.5096 74.049 52 73.1107 52H57.4652L72.6018 26Z" fill="url(#paint0_linear_5904_1149)"/>
<path fill-rule="evenodd" clip-rule="evenodd" d="M72.6018 26H62.7521C61.8028 26 60.9266 26.5019 60.4573 27.3146L46.9603 50.6854C46.4909 51.4981 45.6147 52 44.6654 52H35.6407C34.1827 52 33.0007 50.8359 33.0007 49.4L33.0006 30.0125L33.0007 29.9975C33.0007 28.2026 31.5232 26.7475 29.7006 26.7475C28.523 26.7475 27.4894 27.3549 26.9054 28.269L13.9596 50.6854C13.4903 51.4981 12.614 52 11.6647 52H-6.32219e-07V45.825L25.642 1.31696C26.111 0.502973 26.9879 0 27.9382 0H36.961C38.4191 0 39.6011 1.16406 39.6011 2.6V26H43.007C43.9608 26 44.8404 25.4934 45.308 24.6747L58.6444 1.32532C59.112 0.506639 59.9917 0 60.9455 0H69.9617C71.4198 0 72.6018 1.16406 72.6018 2.6V26ZM72.6018 26L76.7269 34.7344L79.7537 41.1433C80.1187 41.916 80.0759 42.8159 79.6393 43.5517L75.3901 50.7119C74.9167 51.5096 74.049 52 73.1107 52H57.4652L72.6018 26Z" fill="url(#paint1_linear_5904_1149)"/>
<defs>
<linearGradient id="paint0_linear_5904_1149" x1="31.8033" y1="-5.2" x2="49.8344" y2="62.2051" gradientUnits="userSpaceOnUse">
<stop stop-color="#3700D4"/>
<stop offset="1" stop-color="#C482F1"/>
</linearGradient>
<linearGradient id="paint1_linear_5904_1149" x1="13.7705" y1="-5.85" x2="71.666" y2="47.3066" gradientUnits="userSpaceOnUse">
<stop stop-color="#122796"/>
<stop offset="1" stop-color="#3C73FF"/>
</linearGradient>
</defs>
</svg>
