<svg width="452" height="80" viewBox="0 0 452 80" fill="none" xmlns="http://www.w3.org/2000/svg">
<path d="M207 70H197.305V45.2803H171.574V70H162V25.96C162 23.08 162.718 20.44 164.154 18.04C165.59 15.5601 167.545 13.6002 170.018 12.1602C172.491 10.7202 175.164 10 178.037 10H207V70ZM223.681 54.2861C223.681 56.032 224.286 57.5398 225.497 58.8096C226.787 59.9999 228.32 60.5957 230.095 60.5957H242.318V25H251.878L252 70H230.216C227.312 70 224.609 69.3257 222.108 67.9766C219.607 66.548 217.63 64.6427 216.178 62.2617C214.726 59.8015 214 57.1431 214 54.2861V25H223.681V54.2861ZM268.615 24.5195H280.754V34H268.615V54.04C268.695 55.7998 269.336 57.3197 270.538 58.5996C271.82 59.7995 273.342 60.4003 275.105 60.4004H284V70H274.985C272.1 70 269.416 69.2798 266.932 67.8398C264.528 66.3999 262.605 64.48 261.163 62.0801C259.72 59.6001 259 56.92 259 54.04V10H268.615V24.5195ZM310.904 25C313.808 25 316.471 25.7141 318.891 27.1426C321.392 28.5711 323.369 30.5162 324.821 32.9766C326.273 35.4368 326.999 38.0951 327 40.9521V54.167C326.999 57.024 326.273 59.6824 324.821 62.1426C323.449 64.5235 321.513 66.4288 319.012 67.8574C316.592 69.2859 313.929 70 311.025 70H305.216C302.312 70 299.609 69.2859 297.108 67.8574C294.607 66.4288 292.63 64.5235 291.178 62.1426C289.726 59.6824 289 57.024 289 54.167V40.9521C289 38.0951 289.726 35.4368 291.178 32.9766C292.63 30.5162 294.566 28.5711 296.987 27.1426C299.488 25.7141 302.191 25 305.095 25H310.904ZM392 70H382.333V19.5996H367.833V70H358.167V19.5996H350.191C348.419 19.5997 346.928 20.2397 345.72 21.5195C344.431 22.7195 343.747 24.2 343.667 25.96L343.787 70H334.121L334 25.96C334 23.08 334.724 20.44 336.174 18.04C337.624 15.5601 339.598 13.6001 342.095 12.1602C344.512 10.7202 347.171 10 350.071 10H392V70ZM428.004 10C430.869 10 433.495 10.7203 435.882 12.1602C438.349 13.6002 440.3 15.56 441.732 18.04C443.244 20.52 444 23.2002 444 26.0801L443.88 53.9199C443.88 56.2387 443.415 58.4278 442.487 60.4873L452 70H442L438.204 66.2041C437.489 66.8086 436.715 67.3538 435.882 67.8398C433.416 69.2797 430.75 70 427.885 70H414.995C412.13 70 409.463 69.2798 406.997 67.8398C404.53 66.3999 402.58 64.4399 401.148 61.96C399.716 59.48 399 56.7999 399 53.9199V26.0801C399 23.2001 399.716 20.52 401.148 18.04C402.58 15.5601 404.53 13.6001 406.997 12.1602C409.463 10.7202 412.13 10 414.995 10H428.004ZM305.095 34.5234C303.32 34.5234 301.787 35.1589 300.497 36.4287C299.286 37.6985 298.681 39.2062 298.681 40.9521V54.167C298.681 55.9129 299.286 57.4207 300.497 58.6904C301.787 59.8808 303.32 60.4766 305.095 60.4766H310.904C312.679 60.4766 314.171 59.8808 315.381 58.6904C316.672 57.4207 317.358 55.9129 317.439 54.167L317.318 40.9521C317.318 39.1269 316.672 37.6191 315.381 36.4287C314.171 35.1589 312.679 34.5234 310.904 34.5234H305.095ZM414.995 19.7197C413.244 19.7197 411.732 20.3598 410.458 21.6396C409.265 22.8396 408.667 24.3201 408.667 26.0801L408.548 53.9199C408.628 55.6799 409.265 57.2005 410.458 58.4805C411.732 59.7603 413.244 60.4004 414.995 60.4004H428.004C429.755 60.4004 431.267 59.7603 432.541 58.4805C433.814 57.2005 434.411 55.6799 434.332 53.9199V26.0801C434.332 24.3201 433.695 22.8396 432.421 21.6396C431.148 20.3597 429.636 19.7197 427.885 19.7197H414.995ZM178.037 19.4805C176.281 19.4805 174.765 20.1204 173.489 21.4004C172.212 22.6803 171.574 24.2001 171.574 25.96V35.4404H197.305V19.4805H178.037Z" fill="white"/>
<path fill-rule="evenodd" clip-rule="evenodd" d="M110.717 40H95.6968C94.2491 40 92.9128 40.7722 92.1971 42.0225L71.6141 77.9775C70.8984 79.2278 69.5622 80 68.1145 80H54.3519C52.1283 80 50.3258 78.2091 50.3258 76L50.3257 46.1731L50.3258 46.15C50.3258 43.3886 48.0726 41.15 45.2931 41.15C43.4973 41.15 41.9211 42.0845 41.0305 43.4908L21.2881 77.9775C20.5724 79.2278 19.2362 80 17.7884 80H-0.000242396V70.5L39.1038 2.02609C39.819 0.773805 41.1564 0 42.6056 0H56.3654C58.5889 0 60.3915 1.79086 60.3915 4V40H65.5854C67.0399 40 68.3813 39.2206 69.0944 37.961L89.4325 2.03895C90.1456 0.779445 91.4871 0 92.9416 0H106.691C108.915 0 110.717 1.79086 110.717 4V40ZM110.717 40L117.008 53.4375L121.624 63.2973C122.181 64.4862 122.116 65.8705 121.45 67.0026L114.97 78.0183C114.248 79.2456 112.924 80 111.494 80H87.6342L110.717 40Z" fill="url(#paint0_linear_6405_1743)"/>
<path fill-rule="evenodd" clip-rule="evenodd" d="M110.717 40H95.6968C94.2491 40 92.9128 40.7722 92.1971 42.0225L71.6141 77.9775C70.8984 79.2278 69.5622 80 68.1145 80H54.3519C52.1283 80 50.3258 78.2091 50.3258 76L50.3257 46.1731L50.3258 46.15C50.3258 43.3886 48.0726 41.15 45.2931 41.15C43.4973 41.15 41.9211 42.0845 41.0305 43.4908L21.2881 77.9775C20.5724 79.2278 19.2362 80 17.7884 80H-0.000242396V70.5L39.1038 2.02609C39.819 0.773805 41.1564 0 42.6056 0H56.3654C58.5889 0 60.3915 1.79086 60.3915 4V40H65.5854C67.0399 40 68.3813 39.2206 69.0944 37.961L89.4325 2.03895C90.1456 0.779445 91.4871 0 92.9416 0H106.691C108.915 0 110.717 1.79086 110.717 4V40ZM110.717 40L117.008 53.4375L121.624 63.2973C122.181 64.4862 122.116 65.8705 121.45 67.0026L114.97 78.0183C114.248 79.2456 112.924 80 111.494 80H87.6342L110.717 40Z" fill="url(#paint1_linear_6405_1743)"/>
<defs>
<linearGradient id="paint0_linear_6405_1743" x1="48.4998" y1="-8" x2="76.4517" y2="95.5774" gradientUnits="userSpaceOnUse">
<stop stop-color="#3700D4"/>
<stop offset="1" stop-color="#C482F1"/>
</linearGradient>
<linearGradient id="paint1_linear_6405_1743" x1="20.9998" y1="-9" x2="110" y2="72" gradientUnits="userSpaceOnUse">
<stop stop-color="#122796"/>
<stop offset="1" stop-color="#3C73FF"/>
</linearGradient>
</defs>
</svg>
