<svg width="452" height="80" viewBox="0 0 452 80" fill="none" xmlns="http://www.w3.org/2000/svg">
<path fill-rule="evenodd" clip-rule="evenodd" d="M197.306 25.96C197.306 24.2 197.306 19.48 197.306 19.48C197.306 19.48 192.678 19.48 190.843 19.48H178.037C176.282 19.48 174.766 20.12 173.489 21.4C172.213 22.68 171.574 24.2 171.574 25.96V35.44H197.306V25.96ZM162 25.96C162 23.08 162.718 20.44 164.154 18.04C165.59 15.56 167.545 13.6 170.018 12.16C172.492 10.72 175.165 10 178.037 10H190.843C193.795 10 207 10 207 10C207 10 207 23.08 207 25.96C207 28.84 207 70 207 70H197.306V45.28H171.574V70H162V25.96ZM274.985 70C272.101 70 269.416 69.28 266.932 67.84C264.529 66.4 262.606 64.48 261.163 62.08C259.721 59.6 259 56.92 259 54.04V10H268.615V24.52H280.755V34H268.615V54.04C268.695 55.8 269.336 57.32 270.538 58.6C271.82 59.8 273.343 60.4 275.106 60.4H284V70H274.985ZM310.904 34.5238C312.679 34.5238 314.172 35.1587 315.382 36.4286C316.673 37.619 317.318 39.127 317.318 40.9524L317.439 54.1667C317.359 55.9127 316.673 57.4206 315.382 58.6905C314.172 59.881 312.679 60.4762 310.904 60.4762H305.095C303.32 60.4762 301.787 59.881 300.497 58.6905C299.286 57.4206 298.681 55.9127 298.681 54.1667V40.9524C298.681 39.2064 299.286 37.6984 300.497 36.4286C301.787 35.1587 303.32 34.5238 305.095 34.5238H310.904ZM289 54.1667C289 57.0238 289.726 59.6825 291.178 62.1429C292.63 64.5238 294.607 66.4286 297.108 67.8571C299.609 69.2857 302.312 70 305.216 70H311.025C313.93 70 316.592 69.2857 319.012 67.8571C321.514 66.4286 323.45 64.5238 324.821 62.1429C326.274 59.6825 327 57.0238 327 54.1667V40.9524C327 38.0952 326.274 35.4365 324.821 32.9762C323.369 30.5159 321.393 28.5714 318.891 27.1429C316.471 25.7143 313.809 25 310.904 25H305.095C302.191 25 299.488 25.7143 296.987 27.1429C294.567 28.5714 292.63 30.5159 291.178 32.9762C289.726 35.4365 289 38.0952 289 40.9524V54.1667ZM252 70L251.879 25H242.318V60.5952H230.095C228.32 60.5952 226.787 60 225.497 58.8095C224.286 57.5397 223.681 56.0317 223.681 54.2857V25H214V54.2857C214 57.1429 214.726 59.8016 216.178 62.2619C217.63 64.6429 219.607 66.5476 222.108 67.9762C224.609 69.3254 227.312 70 230.216 70H252ZM432.422 21.64C431.148 20.36 429.636 19.72 427.886 19.72H414.994C413.244 19.72 411.732 20.36 410.459 21.64C409.265 22.84 408.668 24.32 408.668 26.08L408.549 53.92C408.628 55.68 409.265 57.2 410.459 58.48C411.732 59.76 413.244 60.4 414.994 60.4H428.005C429.756 60.4 431.268 59.76 432.541 58.48C433.814 57.2 434.411 55.68 434.331 53.92V26.08C434.331 24.32 433.695 22.84 432.422 21.64ZM401.148 61.96C399.716 59.48 399 56.8 399 53.92V26.08C399 23.2 399.716 20.52 401.148 18.04C402.581 15.56 404.53 13.6 406.997 12.16C409.464 10.72 412.13 10 414.994 10H428.005C430.87 10 433.496 10.72 435.883 12.16C438.35 13.6 440.299 15.56 441.732 18.04C443.244 20.52 444 23.2 444 26.08L443.88 53.92C443.88 56.2389 443.416 58.4281 442.487 60.4877L452 70H442L438.204 66.2042C437.489 66.8087 436.716 67.354 435.883 67.84C433.416 69.28 430.75 70 427.886 70H414.994C412.13 70 409.464 69.28 406.997 67.84C404.53 66.4 402.581 64.44 401.148 61.96Z" fill="#0D1117"/>
<path d="M350.071 10H392V70H382.333V19.6H367.833V70H358.166V19.6H350.191C348.419 19.6 346.929 20.24 345.721 21.52C344.432 22.72 343.747 24.2 343.666 25.96L343.787 70H334.121L334 25.96C334 23.08 334.725 20.44 336.175 18.04C337.625 15.56 339.598 13.6 342.096 12.16C344.512 10.72 347.171 10 350.071 10Z" fill="#0D1117"/>
<path fill-rule="evenodd" clip-rule="evenodd" d="M110.718 40H95.697C94.2493 40 92.9131 40.7722 92.1973 42.0225L71.6144 77.9775C70.8987 79.2278 69.5624 80 68.1147 80H54.3521C52.1286 80 50.326 78.2091 50.326 76L50.326 46.1731L50.326 46.15C50.326 43.3886 48.0728 41.15 45.2934 41.15C43.4975 41.15 41.9214 42.0845 41.0307 43.4908L21.2884 77.9775C20.5726 79.2278 19.2364 80 17.7887 80H0V70.5L39.1041 2.02609C39.8192 0.773805 41.1566 0 42.6058 0H56.3656C58.5892 0 60.3917 1.79086 60.3917 4V40H65.5856C67.0401 40 68.3816 39.2206 69.0947 37.961L89.4328 2.03895C90.1459 0.779445 91.4873 0 92.9418 0H106.692C108.915 0 110.718 1.79086 110.718 4V40ZM110.718 40L117.009 53.4375L121.624 63.2973C122.181 64.4862 122.116 65.8705 121.45 67.0026L114.97 78.0183C114.248 79.2456 112.925 80 111.494 80H87.6344L110.718 40Z" fill="url(#paint0_linear_1220_26291)"/>
<path fill-rule="evenodd" clip-rule="evenodd" d="M110.718 40H95.697C94.2493 40 92.9131 40.7722 92.1973 42.0225L71.6144 77.9775C70.8987 79.2278 69.5624 80 68.1147 80H54.3521C52.1286 80 50.326 78.2091 50.326 76L50.326 46.1731L50.326 46.15C50.326 43.3886 48.0728 41.15 45.2934 41.15C43.4975 41.15 41.9214 42.0845 41.0307 43.4908L21.2884 77.9775C20.5726 79.2278 19.2364 80 17.7887 80H0V70.5L39.1041 2.02609C39.8192 0.773805 41.1566 0 42.6058 0H56.3656C58.5892 0 60.3917 1.79086 60.3917 4V40H65.5856C67.0401 40 68.3816 39.2206 69.0947 37.961L89.4328 2.03895C90.1459 0.779445 91.4873 0 92.9418 0H106.692C108.915 0 110.718 1.79086 110.718 4V40ZM110.718 40L117.009 53.4375L121.624 63.2973C122.181 64.4862 122.116 65.8705 121.45 67.0026L114.97 78.0183C114.248 79.2456 112.925 80 111.494 80H87.6344L110.718 40Z" fill="url(#paint1_linear_1220_26291)"/>
<defs>
<linearGradient id="paint0_linear_1220_26291" x1="48.5" y1="-8" x2="76.4519" y2="95.5774" gradientUnits="userSpaceOnUse">
<stop stop-color="#3700D4"/>
<stop offset="1" stop-color="#C482F1"/>
</linearGradient>
<linearGradient id="paint1_linear_1220_26291" x1="21" y1="-9" x2="110" y2="72" gradientUnits="userSpaceOnUse">
<stop stop-color="#122796"/>
<stop offset="1" stop-color="#3C73FF"/>
</linearGradient>
</defs>
</svg>
